<svg xmlns="http://www.w3.org/2000/svg" width="1200" height="630" viewBox="0 0 1200 630" fill="none">
  <rect width="1200" height="630" fill="#ffffff"/>
  <g fill="#e6c9d1" opacity="0.6">
    <circle cx="80" cy="80" r="2"/><circle cx="160" cy="80" r="2"/><circle cx="240" cy="80" r="2"/>
    <circle cx="80" cy="160" r="2"/><circle cx="160" cy="160" r="2"/><circle cx="240" cy="160" r="2"/>
  </g>
  <g transform="translate(90,90)">
    <circle cx="34" cy="34" r="34" fill="#7a1530"/>
    <circle cx="34" cy="34" r="18" fill="none" stroke="#fff" stroke-width="3" opacity="0.55"/>
    <path d="M25 24h18M34 24v22M27 42c2 1.4 4.4 2 6.8 2 3.6 0 5.6-1.8 5.6-4.2 0-5.2-12.4-3.2-12.4-8.2 0-2.2 2.4-3.8 5.6-3.8 2 0 3.6.6 5 1.6"
      fill="none" stroke="#fff" stroke-width="3" stroke-linecap="round" stroke-linejoin="round"/>
    <text x="90" y="46" font-family="Verdana, sans-serif" font-size="40" font-weight="700" fill="#3a0f1c">Lucra<tspan fill="#7a1530">tor</tspan></text>
  </g>
  <text x="90" y="320" font-family="Verdana, sans-serif" font-size="62" font-weight="800" fill="#3a0f1c">The CRM that turns</text>
  <text x="90" y="392" font-family="Verdana, sans-serif" font-size="62" font-weight="800" fill="#3a0f1c">leads into revenue.</text>
  <text x="90" y="470" font-family="Verdana, sans-serif" font-size="30" fill="#7a4250">Live pipeline, lead scoring &amp; a real dashboard — plus growth modules</text>
  <text x="90" y="510" font-family="Verdana, sans-serif" font-size="30" fill="#7a4250">for chat, follow-ups, quotes &amp; bookings.</text>
  <rect x="90" y="548" width="280" height="56" rx="28" fill="#7a1530"/>
  <text x="230" y="584" font-family="Verdana, sans-serif" font-size="26" font-weight="700" fill="#fff" text-anchor="middle">Book free audit</text>
</svg>
